<?xml version="1.0" standalone="no"?>
<!DOCTYPE svg PUBLIC "-//W3C//DTD SVG 1.1//EN" "http://www.w3.org/Graphics/SVG/1.1/DTD/svg11.dtd" >
<svg xmlns="http://www.w3.org/2000/svg" xmlns:xlink="http://www.w3.org/1999/xlink" version="1.1">
<metadata>
Created by FontForge 20220308 at Thu May  4 19:11:04 2023
 By Benson Muite
2020 (c) Ken Vermette &#60;vermette@gmail.com&#62;
2023 (c) Benson Muite &#60;benson_muite@emailplus.org&#62;
</metadata>
<defs>
<font id="glyph" horiz-adv-x="1024" >
  <font-face 
    font-family="glyph"
    font-weight="400"
    font-stretch="normal"
    units-per-em="1024"
    panose-1="2 0 5 3 0 0 0 0 0 0"
    ascent="960"
    descent="-64"
    x-height="634"
    cap-height="820"
    bbox="-0.25 -65 1024 960"
    underline-thickness="0"
    underline-position="0"
    unicode-range="U+0020-EAC9"
  />
<missing-glyph 
 />
    <glyph glyph-name=".notdef" 
 />
    <glyph glyph-name="space" unicode=" " horiz-adv-x="512" 
 />
    <glyph glyph-name="share-diaspora" unicode="*" 
d="M430 820h164l1 -271l258 83l51 -156l-258 -84l159 -220l-133 -96l-160 219l-160 -219l-133 96l159 220l-258 84l51 156l258 -83z" />
    <glyph glyph-name="go-previous" unicode="&#x3c;" 
d="M665 820l33 -33l-339 -339l339 -339l-33 -33l-372 372z" />
    <glyph glyph-name="hamburger" unicode="=" 
d="M140 820h744v-93h-744v93zM140 169h93v-93h-93v93zM140 495h744v-94h-744v94zM791 169h93v-93h-93v93zM465 169h94v-93h-94v93z" />
    <glyph glyph-name="go-next" unicode="&#x3e;" 
d="M359 820l372 -372l-372 -372l-33 33l339 339l-339 339z" />
    <glyph glyph-name="instagram" unicode="B" 
d="M512 868c-137 0 -153 -1 -207 -3c-50 -2 -77 -11 -95 -18c-24 -9 -41 -20 -59 -38s-29 -35 -38 -59c-7 -18 -15 -45 -17 -95c-2 -54 -3 -70 -3 -207s1 -153 3 -207c2 -50 10 -77 17 -95c9 -24 21 -40 39 -58s34 -30 58 -39c18 -7 45 -15 95 -17c54 -2 70 -3 207 -3
s153 1 207 3c50 2 77 10 95 17c24 9 41 21 59 39s29 35 38 59c7 18 16 45 18 95c2 54 3 69 3 206s-1 153 -3 207c-2 50 -11 77 -18 95c-9 24 -20 41 -38 59s-35 29 -59 38c-18 7 -45 16 -95 18c-54 2 -70 3 -207 3zM512 960c139 0 156 0 211 -3c54 -2 91 -11 124 -24
c34 -13 63 -31 91 -59c29 -28 46 -57 59 -91c13 -32 21 -70 23 -124c2 -55 3 -72 3 -211s-1 -156 -3 -211c-2 -54 -10 -91 -23 -124c-13 -34 -31 -63 -59 -91s-57 -46 -91 -59c-32 -13 -70 -22 -124 -24c-55 -2 -72 -3 -211 -3s-156 1 -211 3c-54 2 -91 11 -124 24
c-34 13 -63 31 -91 59c-29 28 -46 57 -59 91c-13 32 -22 70 -24 124c-2 55 -3 72 -3 211s1 156 3 211c2 54 11 91 24 124c13 34 30 63 59 91c28 29 57 46 91 59c32 13 70 22 124 24c55 2 72 3 211 3zM512 711c145 0 263 -118 263 -263s-118 -263 -263 -263
s-263 118 -263 263s118 263 263 263zM512 277c94 0 171 77 171 171s-77 171 -171 171s-171 -77 -171 -171s77 -171 171 -171zM847 721c0 -34 -28 -61 -62 -61s-61 27 -61 61s27 62 61 62s62 -28 62 -62z" />
    <glyph glyph-name="telegram" unicode="C" 
d="M512 960c283 0 512 -229 512 -512s-229 -512 -512 -512s-512 229 -512 512s229 512 512 512zM764 609c9 35 -14 50 -36 40l-493 -190c-34 -13 -33 -33 -6 -41l126 -39l44 -144c6 -16 2 -22 19 -22c13 0 19 6 26 13l61 60l128 -95c24 -13 41 -6 47 22z" />
    <glyph glyph-name="share-facebook" unicode="F" 
d="M762 76h-163v350h-87v142h87v76c0 111 46 176 176 176h109v-136h-68c-51 0 -54 -19 -54 -54v-62h122l-14 -142h-108v-350z" />
    <glyph glyph-name="share-gplus" unicode="G" 
d="M372 681c62 0 121 -25 165 -69l-66 -65c-26 26 -62 41 -99 41c-77 0 -139 -63 -139 -140s62 -140 139 -140c59 0 112 37 132 93h-132v94h228c3 -15 5 -31 5 -47c0 -129 -104 -233 -233 -233s-232 104 -232 233s103 233 232 233zM745 588h93v-93h93v-94h-93v-93h-93v93
h-93v94h93v93z" />
    <glyph glyph-name="go-home" unicode="H" 
d="M512 820l93 -93h140v-139l139 -140l-33 -33l-13 14v-353h-652v353l-13 -14l-33 33zM512 755l-279 -280v-353h186v233h186v-233h186v353z" />
    <glyph glyph-name="info" unicode="I" 
d="M465 681h94v-93h-94v93zM465 541h94v-326h-94v326zM512 820c206 0 372 -166 372 -372s-166 -372 -372 -372s-372 166 -372 372s166 372 372 372zM512 774c-181 0 -326 -145 -326 -326s145 -326 326 -326s326 145 326 326s-145 326 -326 326z" />
    <glyph glyph-name="share-peertube" unicode="J" horiz-adv-x="745" 
d="M2 944l372 -248l-372 -248v496zM2 448l372 -249l-372 -248v497zM374 696l372 -248l-372 -249v497z" />
    <glyph glyph-name="logo-kde" unicode="K" 
d="M544 820l-1 -224l163 219l132 -30l-170 -219l168 -232l-129 -41l-164 241v-217l-123 -18v509zM263 696c1 0 3 0 4 -1l93 -61c11 6 24 12 36 16v-51c-69 -31 -116 -99 -116 -179c0 -109 88 -197 197 -197c77 0 142 43 175 107c27 -40 49 -71 49 -71c1 -1 2 -2 4 -1l10 3
l34 -54c2 -2 1 -6 -1 -8l-49 -49c-2 -2 -6 -2 -8 0l-91 59c-19 -11 -38 -19 -59 -25l-26 -103c-1 -3 -3 -5 -6 -5h-68c-3 0 -6 2 -7 5l-21 103c-21 6 -40 14 -58 24l-92 -56c-2 -2 -6 -1 -8 1l-49 49c-2 2 -2 5 0 8l58 89c-11 19 -20 41 -25 63l-101 25c-3 1 -5 3 -5 6v69
c0 3 2 5 5 6l105 22c6 19 14 37 24 54l-57 94c-2 2 -1 6 1 8l48 48c1 1 3 2 4 2z" />
    <glyph glyph-name="logo-plasmamobile" unicode="M" 
d="M233 820h465v-744h-465v744zM279 727v-558h373v558h-373zM406 588c11 0 20 -9 20 -20s-9 -20 -20 -20s-20 9 -20 20s9 20 20 20zM505 588l100 -100l-100 -100l-40 40l60 60l-60 60zM356 488c17 0 30 -13 30 -30s-13 -30 -30 -30s-30 13 -30 30s13 30 30 30zM416 368
c17 0 30 -13 30 -30s-13 -30 -30 -30s-30 13 -30 30s13 30 30 30z" />
    <glyph glyph-name="neon" unicode="N" 
d="M512 959c13 0 23 -7 28 -19h2c114 -7 218 -54 298 -125h-1c4 1 8 2 12 2c17 0 31 -14 31 -31c0 -4 -1 -8 -2 -11l-1 1c72 -80 118 -184 125 -300c12 -4 20 -16 20 -29s-8 -23 -20 -28v-2c-7 -114 -53 -218 -124 -298c1 -4 2 -7 2 -11c0 -17 -14 -31 -31 -31
c-4 0 -8 1 -11 2v1c-80 -72 -184 -118 -300 -125c-4 -12 -15 -20 -28 -20s-24 8 -29 20h-1c-114 7 -218 53 -298 124c-4 -1 -8 -2 -12 -2c-17 0 -31 14 -31 31c0 4 2 8 3 11c-72 80 -117 183 -124 299h-1c-12 4 -19 16 -19 29s8 24 20 29v1c7 114 53 218 124 298v-1
c-2 4 -3 8 -3 12c0 17 14 31 31 31c4 0 8 0 12 -2v-1c80 72 184 118 299 125c4 12 16 20 29 20zM484 915h-2c-108 -7 -206 -51 -281 -118v1c1 -3 2 -8 2 -12c0 -17 -14 -30 -31 -30c-4 0 -7 1 -10 2c-68 -76 -111 -174 -118 -283c10 -5 17 -16 17 -28s-7 -22 -17 -27v-2
c7 -108 50 -205 117 -281c4 1 7 2 11 2c17 0 31 -14 31 -31c0 -4 -1 -8 -2 -11c76 -67 174 -110 283 -117c5 10 16 17 28 17s22 -8 27 -18h2c108 7 206 51 281 118c-1 4 -2 7 -2 11c0 17 14 31 31 31c4 0 8 -1 11 -2v-1c67 76 110 175 117 284c-10 5 -17 15 -17 27
s7 23 17 28v1c-7 108 -50 207 -117 282c-4 -1 -7 -2 -11 -2c-17 0 -31 13 -31 30c0 4 1 9 2 12l1 -1c-76 67 -175 111 -284 118v-1c-5 -10 -15 -16 -27 -16s-23 7 -28 17zM512 811c13 0 23 -8 28 -20h2c177 -15 315 -163 315 -344s-139 -329 -317 -344
c-4 -12 -15 -20 -28 -20s-24 8 -29 20h-1c-177 15 -316 163 -316 344s139 329 317 344c4 12 16 20 29 20zM539 767v-1c-5 -10 -15 -17 -27 -17s-23 8 -28 18l-1 -1c-164 -15 -292 -152 -292 -319s128 -304 293 -319c5 10 16 17 28 17s22 -7 27 -17h1c164 15 292 152 292 319
s-128 305 -293 320zM635 447c0 -68 -55 -123 -123 -123s-124 55 -124 123s56 124 124 124s123 -56 123 -124z" />
    <glyph glyph-name="logo-plasma" unicode="P" 
d="M618 288l-106 107l160 159l-160 160l106 106l266 -266zM459 155c0 -44 -36 -79 -80 -79s-80 35 -80 79s36 80 80 80s80 -36 80 -80zM299 475c0 -44 -36 -80 -80 -80s-79 36 -79 80s35 79 79 79s80 -35 80 -79zM406 767c0 -29 -25 -53 -54 -53s-53 24 -53 53s24 53 53 53
s54 -24 54 -53z" />
    <glyph glyph-name="search" unicode="Q" 
d="M416 832c160 0 288 -128 288 -288s-128 -288 -288 -288s-288 128 -288 288s128 288 288 288zM416 768c-124 0 -224 -100 -224 -224s100 -224 224 -224s224 100 224 224s-100 224 -224 224zM576 339l45 45l275 -275l-45 -45z" />
    <glyph glyph-name="share-reddit" unicode="R" 
d="M554 847l189 -31l-8 -46l-149 24l-48 -161c66 -3 130 -18 185 -44c22 28 56 45 92 45c64 0 116 -52 116 -116c0 -39 -19 -75 -52 -97c4 -14 5 -29 5 -43c0 -141 -166 -256 -372 -256s-372 115 -372 256c0 14 1 29 5 43c-32 22 -52 58 -52 97c0 64 52 116 116 116
c36 0 70 -17 92 -45c56 27 122 41 190 44zM832 845c39 0 70 -31 70 -70s-31 -70 -70 -70s-70 31 -70 70s31 70 70 70zM209 588c-39 0 -69 -31 -69 -70c0 -20 8 -39 23 -52c20 38 54 72 97 100c-13 14 -32 22 -51 22zM814 588c-19 0 -37 -8 -50 -22c43 -28 77 -62 97 -100
c15 13 23 32 23 52c0 39 -30 70 -69 70h-1zM372 495c-26 0 -46 -21 -46 -47s20 -47 46 -47s47 21 47 47s-21 47 -47 47zM652 495c-26 0 -47 -21 -47 -47s21 -47 47 -47s46 21 46 47s-20 47 -46 47zM374 308l-35 -17s12 -23 39 -45s71 -44 134 -44s107 22 134 44s39 45 39 45
l-35 17s-8 -15 -29 -32s-55 -35 -109 -35s-88 18 -109 35s-29 32 -29 32z" />
    <glyph glyph-name="settings" unicode="S" 
d="M535 820c64 0 117 -52 117 -116s-53 -116 -117 -116s-116 52 -116 116s52 116 116 116zM256 308c64 0 116 -52 116 -116s-52 -116 -116 -116s-116 52 -116 116s52 116 116 116zM256 262c-39 0 -70 -31 -70 -70s31 -70 70 -70s70 31 70 70s-31 70 -70 70zM140 727h744v-46
h-744v46zM326 215v-46h558v46h-558z" />
    <glyph glyph-name="share-twitter" unicode="T" 
d="M884 679c-20 -31 -46 -57 -76 -79c0 -7 1 -13 1 -20c0 -202 -154 -435 -435 -435c-86 0 -166 26 -234 69c12 -1 24 -2 36 -2c72 0 138 24 190 65c-67 1 -124 45 -143 106c9 -2 19 -2 29 -2c14 0 27 2 40 5c-70 14 -122 76 -122 150v2c21 -11 44 -18 69 -19
c-41 27 -68 74 -68 127c0 28 7 54 20 77c75 -92 188 -154 315 -160c-3 11 -4 23 -4 35c0 84 69 153 153 153c44 0 84 -19 112 -49c35 7 67 19 97 37c-11 -36 -35 -65 -67 -84c31 4 60 12 87 24z" />
    <glyph glyph-name="video" unicode="V" 
d="M93 727h838v-558h-838v558zM140 681v-466h744v466h-744zM419 588l186 -140l-186 -140v280z" />
    <glyph glyph-name="window-new" unicode="W" 
d="M140 820h744v-465h-46v279h-652v-512h419v-46h-465v744zM745 308h46v-93h93v-46h-93v-93h-46v93h-93v46h93v93z" />
    <glyph glyph-name="close" unicode="X" 
d="M173 820l711 -711l-33 -33l-711 711zM173 76l-33 33l711 711l33 -33z" />
    <glyph glyph-name="share-ycombinator" unicode="Y" 
d="M465 401l-209 419h116l140 -279l140 279h116l-209 -419v-325h-94v325z" />
    <glyph glyph-name="cancel" unicode="\" 
d="M512 789c189 0 341 -152 341 -341c0 -87 -32 -165 -85 -225c-5 -5 -10 -11 -15 -16l-16 -15c-60 -53 -138 -85 -225 -85c-189 0 -341 152 -341 341c0 87 32 165 85 225l15 16c5 5 11 10 16 15c60 53 138 85 225 85zM512 747c-75 0 -143 -29 -195 -74l420 -420
c45 52 74 120 74 195c0 165 -134 299 -299 299zM287 643c-45 -52 -74 -120 -74 -195c0 -165 134 -299 299 -299c75 0 143 29 195 74z" />
    <glyph glyph-name="go-up" unicode="^" 
d="M173 308l-33 33l372 373l372 -373l-33 -33l-339 340z" />
    <glyph glyph-name="matrix-favicon" unicode="a" 
d="M27 937v-978h70v-23h-97v1024h97v-23h-70zM327 627v-50h2c13 19 29 34 48 44s40 16 64 16c23 0 44 -5 63 -14s33 -25 43 -47c11 16 25 30 44 42s41 19 66 19c19 0 37 -2 54 -7s30 -13 42 -23s21 -24 28 -41c6 -17 10 -36 10 -60v-244h-100v206c0 12 -1 24 -2 35
s-3 20 -7 28s-11 14 -19 19s-20 7 -34 7s-25 -3 -34 -8c-9 -6 -15 -12 -20 -21s-8 -19 -10 -30s-3 -22 -3 -33v-203h-100v204c0 11 0 21 -1 32c0 11 -2 21 -6 30s-10 16 -18 21s-20 8 -36 8c-5 0 -11 -1 -19 -3s-15 -6 -22 -12s-14 -14 -19 -25s-8 -26 -8 -44v-212h-100v366
h94zM997 -41v978h-70v23h97v-1024h-97v23h70z" />
    <glyph glyph-name="check" unicode="c" 
d="M851 727l33 -33l-486 -492h1l-33 -33l-226 229l33 33l193 -196z" />
    <glyph glyph-name="i" unicode="i" 
d="M839 607c-9 -44 -101 -171 -101 -171c-8 -13 -11 -20 0 -34c8 -11 35 -32 52 -53c32 -36 56 -67 63 -88c6 -21 -5 -32 -26 -32h-75c-28 0 -36 23 -87 74c-44 43 -64 48 -75 48c-15 0 -19 -5 -19 -26v-67c0 -18 -7 -29 -54 -29c-79 0 -165 48 -227 137
c-93 130 -118 228 -118 248c0 11 4 21 25 21h75c19 0 26 -8 33 -29c37 -106 99 -200 124 -200c9 0 14 5 14 29v110c-3 51 -30 55 -30 73c0 8 7 17 19 17h117c16 0 22 -9 22 -28v-148c0 -16 6 -21 11 -21c9 0 18 6 35 23c54 60 92 153 92 153c5 11 13 21 32 21h75
c23 0 28 -12 23 -28z" />
    <glyph glyph-name="link" unicode="l" 
d="M140 634h279c26 0 46 -20 46 -46v-47h94v47c0 26 20 46 46 46h279c26 0 47 -20 47 -46v-280c0 -26 -21 -46 -47 -46h-279c-26 0 -46 20 -46 46v47h-94v-47c0 -26 -20 -46 -46 -46h-279c-26 0 -47 20 -47 46v280c0 26 21 46 47 46zM140 588v-280h279v47
c-26 0 -47 20 -47 46v94c0 26 21 46 47 46v47h-279zM605 588v-47c26 0 47 -20 47 -46v-94c0 -26 -21 -46 -47 -46v-47h279v280h-279zM419 495v-94h186v94h-186z" />
    <glyph glyph-name="share-mastodon" unicode="m" horiz-adv-x="955" 
d="M935 346c-14 -72 -126 -151 -254 -166c-67 -8 -133 -16 -203 -13c-115 5 -206 28 -206 28c0 -11 1 -22 2 -32c15 -113 113 -120 205 -123c93 -3 176 23 176 23l4 -85s-65 -35 -181 -41c-64 -4 -143 1 -236 26c-201 53 -236 268 -241 485c-2 64 -1 125 -1 176
c0 222 146 287 146 287c73 34 199 48 330 49h3c131 -1 258 -15 331 -49c0 0 145 -65 145 -287c0 0 2 -164 -20 -278zM783 607c0 55 -14 99 -42 131c-29 32 -67 48 -114 48c-55 0 -96 -20 -123 -62l-26 -45l-27 45c-27 42 -68 62 -123 62c-47 0 -85 -16 -114 -48
c-28 -32 -42 -76 -42 -131v-269h106v261c0 55 24 83 70 83c51 0 77 -33 77 -99v-143h106v143c0 66 25 99 76 99c46 0 70 -28 70 -83v-261h106v269z" />
    <glyph glyph-name="share" unicode="s" 
d="M745 820c51 0 93 -42 93 -93s-42 -93 -93 -93s-93 42 -93 93s42 93 93 93zM535 634c13 0 24 -10 24 -23s-11 -23 -24 -23s-23 10 -23 23s10 23 23 23zM442 588c13 0 23 -11 23 -24s-10 -23 -23 -23s-23 10 -23 23s10 24 23 24zM279 541c51 0 93 -42 93 -93
s-42 -93 -93 -93s-93 42 -93 93s42 93 93 93zM442 355c13 0 23 -10 23 -23s-10 -24 -23 -24s-23 11 -23 24s10 23 23 23zM535 308c13 0 24 -10 24 -23s-11 -23 -24 -23s-23 10 -23 23s10 23 23 23zM745 262c51 0 93 -42 93 -93s-42 -93 -93 -93s-93 42 -93 93s42 93 93 93z
" />
    <glyph glyph-name="go-down" unicode="v" 
d="M173 634l339 -339l339 339l33 -33l-372 -372l-372 372z" />
    <glyph glyph-name="new-window" unicode="w" 
d="M1024 960v-896h-512v128h384v512h-640v-256h-128v512h896zM256 320v-128h128v-128h-128v-128h-128v128h-128v128h128v128h128z" />
    <glyph glyph-name="clear" unicode="x" 
d="M384 832h640v-768h-640l-384 384zM512 640l-63 -63l128 -129l-128 -129l63 -63l129 129l128 -129l64 63l-129 129l129 129l-64 63l-128 -129z" />
    <glyph glyph-name="share-telegram" unicode="&#x2197;" 
d="M759 700c31 1 42 -17 32 -64c-13 -61 -94 -292 -116 -353c-18 -48 -48 -150 -71 -185c-43 -61 -90 19 -109 67c-94 186 -34 135 -243 236c-70 27 -101 77 -38 111c31 15 179 65 209 76s212 77 282 100c22 7 40 12 54 12z" />
    <glyph glyph-name="favorite" unicode="&#xe901;" 
d="M512 789l106 -224l235 -36l-170 -175l40 -247l-211 116l-211 -116l40 247l-170 175l235 36z" />
    <glyph glyph-name="view-catalog" unicode="&#xe908;" 
d="M140 820h558v-232h-46v186h-466v-652h233v-46h-279v744zM233 727h186v-186h-186v186zM465 727h140v-46h-140v46zM465 634h140v-46h-140v46zM465 541h419v-465h-419v465zM512 495v-326l140 139l46 -46l93 93l47 -47v187h-326zM233 448h186v-47h-186v47zM605 448
c26 0 47 -21 47 -47s-21 -46 -47 -46s-46 20 -46 46s20 47 46 47zM233 355h186v-47h-186v47zM233 262h186v-47h-186v47z" />
    <glyph glyph-name="view-categories" unicode="&#xe909;" 
d="M140 820h744v-279h-46v233h-652v-93h-46v139zM140 634h465v-93h-46v47h-373v-466h233v-46h-279v558zM233 495h186v-47h-186v47zM465 495h419v-419h-419v419zM512 448v-326h326v326h-326zM559 401h232v-93h-232v93zM233 355h93v-47h-93v47zM233 262h186v-47h-186v47z
M652 262h46v-47h-46v47zM745 262h46v-47h-46v47z" />
    <glyph glyph-name="view-fullscreen" unicode="&#xe90a;" 
d="M279 681h47h419v-466h-466v466zM326 541v-279h372v279h-372zM884 681l-139 139h139v-139zM884 215v-139h-139zM140 681v139h139zM140 215l139 -139h-139v139z" />
    <glyph glyph-name="view-list-details" unicode="&#xe90b;" 
d="M140 820h325v-325h-325v325zM186 774v-233h233v233h-233zM140 76v325h325v-325h-325zM559 774h325v-47h-325v47zM559 355h186v-47h-186v47zM559 169h186v-47h-186v47zM559 588h325v-47h-325v47z" />
    <glyph glyph-name="view-list-icons" unicode="&#xe90c;" 
d="M140 820h325v-325h-325v325zM186 774v-233h233v233h-233zM140 76v325h325v-325h-325zM559 820h325v-325h-325v325zM559 401h325v-325h-325v325zM605 355v-233h233v233h-233z" />
    <glyph glyph-name="view-list-text" unicode="&#xe90d;" 
d="M140 820h744v-46h-744v46zM140 727h419v-46h-419v46zM140 541h744v-46h-744v46zM140 448h465v-47h-465v47zM140 262h744v-47h-744v47zM140 169h605v-47h-605v47zM791 122h93v-46h-93v46z" />
    <glyph glyph-name="view-list-tree" unicode="&#xe90e;" 
d="M140 820h325v-325h-325v325zM186 774v-233h233v233h-233zM419 495h46v-280h-46v280zM465 681v-47h94v47h-94zM465 262v-47h94v47h-94zM559 820h325v-325h-325v325zM605 774v-233h233v233h-233zM559 401h325v-325h-325v325z" />
    <glyph glyph-name="view-media-playlist" unicode="&#xe90f;" 
d="M209 820c39 0 70 -30 70 -69s-31 -70 -70 -70s-69 31 -69 70s30 69 69 69zM326 774h46v-47h-46v47zM419 774h465v-47h-465v47zM419 681h140v-47h-140v47zM209 541c39 0 70 -31 70 -70s-31 -70 -70 -70s-69 31 -69 70s30 70 69 70zM326 495h46v-47h-46v47zM419 495h465
v-47h-465v47zM419 401h186v-46h-186v46zM209 262c39 0 70 -31 70 -70s-31 -70 -70 -70s-69 31 -69 70s30 70 69 70zM326 215h46v-46h-46v46zM419 215h465v-46h-465v46zM419 122h326v-46h-326v46z" />
    <glyph glyph-name="linkedin" unicode="&#xeac9;" 
d="M928 960c53 0 96 -43 96 -96v-832c0 -53 -43 -96 -96 -96h-832c-53 0 -96 43 -96 96v832c0 53 43 96 96 96h832zM384 128v448h-128v-448h128zM320 640c35 0 64 29 64 64s-29 64 -64 64s-64 -29 -64 -64s29 -64 64 -64zM832 128v288c0 88 -64 160 -144 160
c-45 0 -86 -43 -112 -79v79h-128v-448h128v256c0 35 29 64 64 64s64 -29 64 -64v-256h128z" />
    <glyph glyph-name="envelope" unicode="&#x2709;" 
d="M72 183l2 34h848l-5 543l-815 1l6 -544h-34l-4 583l877 -5l4 -612h-879zM926 762l-377 -292s-18 -18 -31 -18s-36 18 -36 18l-387 293h58l342 -254l22 -17l23 17l339 253h47z" />
  </font>
</defs>
</svg>
